<?xml version="1.0" encoding="UTF-8" standalone="no"?>
<!-- Created with Inkscape (http://www.inkscape.org/) -->

<svg
   xmlns:dc="http://purl.org/dc/elements/1.1/"
   xmlns:cc="http://creativecommons.org/ns#"
   xmlns:rdf="http://www.w3.org/1999/02/22-rdf-syntax-ns#"
   xmlns:svg="http://www.w3.org/2000/svg"
   xmlns="http://www.w3.org/2000/svg"
   xmlns:sodipodi="http://sodipodi.sourceforge.net/DTD/sodipodi-0.dtd"
   xmlns:inkscape="http://www.inkscape.org/namespaces/inkscape"
   width="744.09448819"
   height="1052.3622047"
   id="svg2"
   version="1.1"
   inkscape:version="0.48.2 r9819"
   sodipodi:docname="drawing.svg">
  <defs
     id="defs4">
    <mask
       maskUnits="userSpaceOnUse"
       id="mask3103">
      <path
         sodipodi:type="arc"
         style="fill:#ff0000"
         id="path3105"
         sodipodi:cx="-1064.2858"
         sodipodi:cy="522.36218"
         sodipodi:rx="158.57143"
         sodipodi:ry="147.14285"
         d="m -905.71434,522.36218 a 158.57143,147.14285 0 1 1 -317.14286,0 158.57143,147.14285 0 1 1 317.14286,0 z"
         transform="translate(34.28571,1.4285713e-6)" />
    </mask>
    <mask
       maskUnits="userSpaceOnUse"
       id="mask3107">
      <path
         sodipodi:type="arc"
         style="fill:#ff0000"
         id="path3109"
         sodipodi:cx="-1064.2858"
         sodipodi:cy="522.36218"
         sodipodi:rx="158.57143"
         sodipodi:ry="147.14285"
         d="m -905.71434,522.36218 a 158.57143,147.14285 0 1 1 -317.14286,0 158.57143,147.14285 0 1 1 317.14286,0 z"
         transform="translate(34.28571,1.4285713e-6)" />
    </mask>
    <mask
       maskUnits="userSpaceOnUse"
       id="mask3111">
      <path
         sodipodi:type="arc"
         style="fill:#ff0000"
         id="path3113"
         sodipodi:cx="-1064.2858"
         sodipodi:cy="522.36218"
         sodipodi:rx="158.57143"
         sodipodi:ry="147.14285"
         d="m -905.71434,522.36218 a 158.57143,147.14285 0 1 1 -317.14286,0 158.57143,147.14285 0 1 1 317.14286,0 z" />
    </mask>
  </defs>
  <sodipodi:namedview
     id="base"
     pagecolor="#ffffff"
     bordercolor="#666666"
     borderopacity="1.0"
     inkscape:pageopacity="0.0"
     inkscape:pageshadow="2"
     inkscape:zoom="0.46499561"
     inkscape:cx="340.47071"
     inkscape:cy="417.50084"
     inkscape:document-units="px"
     inkscape:current-layer="layer2"
     showgrid="false"
     inkscape:window-width="1600"
     inkscape:window-height="876"
     inkscape:window-x="0"
     inkscape:window-y="24"
     inkscape:window-maximized="1" />
  <metadata
     id="metadata7">
    <rdf:RDF>
      <cc:Work
         rdf:about="">
        <dc:format>image/svg+xml</dc:format>
        <dc:type
           rdf:resource="http://purl.org/dc/dcmitype/StillImage" />
        <dc:title></dc:title>
      </cc:Work>
    </rdf:RDF>
  </metadata>
  <g
     inkscape:groupmode="layer"
     id="layer2"
     inkscape:label="arrow">
    <path
       style="fill:#363987;fill-opacity:1"
       d="M 381.59375 312.5625 L 433.40625 364.375 L 389.6875 408.09375 C 514.38696 416.91696 616.11166 508.877 639.78125 628.875 L 690 679.09375 L 736.65625 632.4375 C 712.77926 455.44794 563.76882 318.16505 381.59375 312.5625 z M 314.8125 316.46875 C 140.35688 342.56049 5.7218314 490.43209 0.1875 670.8125 L 51.40625 619.59375 L 95.625 663.8125 C 103.91626 539.46256 194.851 437.73841 314 413.09375 L 362.71875 364.375 L 314.8125 316.46875 z M 51.40625 690.28125 L 4.09375 737.59375 C 29.797045 909.38077 173.5946 1042.5661 350.21875 1051.875 L 305.1875 1006.8125 L 355.03125 956.96875 C 229.58368 950.24007 126.47435 859.44373 101.03125 739.90625 L 51.40625 690.28125 z M 739.59375 700.1875 L 690 749.78125 L 644.15625 703.9375 C 634.79032 824.66371 547.46717 923.53215 432.46875 950.25 L 375.90625 1006.8125 L 418.34375 1049.25 C 594.08288 1026.318 731.07183 880.07032 739.59375 700.1875 z "
       id="path3431" />
  </g>
  <g
     inkscape:label="Layer 1"
     inkscape:groupmode="layer"
     id="layer1">
    <g
       inkscape:label="Layer 1"
       id="layer1-5"
       transform="matrix(0.73489069,0,0,0.73489069,102.05592,415.44346)">
      <g
         id="g4349">
        <rect
           style="fill:#363987;fill-opacity:1;stroke:none"
           id="rect2056"
           width="453.58221"
           height="680.37329"
           x="137.8138"
           y="23.0221"
           rx="236.3" />
        <path
           style="fill:none;stroke:#ffffff;stroke-width:40;stroke-linecap:butt;stroke-linejoin:miter;stroke-miterlimit:4;stroke-opacity:1;stroke-dasharray:none"
           d="M 249.34082,245.07508 478.00045,476.6043 364.6049,589.99985 l 0,-453.5822 113.39555,113.39555 -226.7911,226.7911"
           id="path1295"
           inkscape:connector-curvature="0" />
      </g>
    </g>
  </g>
</svg>
